<?xml version="1.0" encoding="utf-8"?>
<!-- Generator: Adobe Illustrator 19.0.0, SVG Export Plug-In . SVG Version: 6.00 Build 0)  -->
<svg version="1.1" id="Layer_1" xmlns="http://www.w3.org/2000/svg" xmlns:xlink="http://www.w3.org/1999/xlink" x="0px" y="0px"
	 viewBox="0 0 800 800" style="enable-background:new 0 0 800 800;" xml:space="preserve">
<g id="XMLID_1_">
	<path id="XMLID_2_" d="M86.6,673.3l-35.5-93.3h26.6l18,53.1c2,6.7,3.3,13.1,3.8,19.1h0.5c0.3-5.3,1.5-11.7,3.8-19.1l17.9-53.1h26.6
		l-35.5,93.3H86.6z"/>
	<path id="XMLID_4_" d="M247.8,578.3c3.4,0,6.3,0.3,8.6,0.8l-1.9,23.9c-2.1-0.6-4.6-0.8-7.5-0.8c-8.1,0-14.4,2.1-19,6.3
		c-4.5,4.2-6.8,10-6.8,17.5v47.5h-25.4v-93.3h19.3l3.8,15.7h1.3c2.9-5.2,6.8-9.4,11.7-12.6C236.7,579.9,242.1,578.3,247.8,578.3z"/>
	<path id="XMLID_6_" d="M392.3,626.5c0,15.2-4,27.1-12,35.6S361.1,675,346.8,675c-9,0-16.9-2-23.7-5.9s-12.1-9.6-15.8-16.9
		c-3.7-7.3-5.5-15.9-5.5-25.7c0-15.2,4-27.1,11.9-35.5c8-8.5,19.1-12.7,33.5-12.7c9,0,16.9,1.9,23.7,5.8c6.8,3.9,12.1,9.5,15.8,16.8
		S392.3,616.7,392.3,626.5z M327.8,626.5c0,9.2,1.5,16.2,4.5,20.9c3,4.7,8,7.1,14.8,7.1c6.8,0,11.7-2.4,14.6-7.1
		c3-4.7,4.5-11.7,4.5-21c0-9.2-1.5-16.2-4.5-20.8c-3-4.6-7.9-6.9-14.8-6.9c-6.8,0-11.7,2.3-14.7,6.9
		C329.3,610.3,327.8,617.2,327.8,626.5z"/>
	<path id="XMLID_9_" d="M532.2,626.5c0,15.2-4,27.1-12,35.6c-8,8.6-19.2,12.8-33.5,12.8c-9,0-16.9-2-23.7-5.9
		c-6.8-3.9-12.1-9.6-15.8-16.9s-5.5-15.9-5.5-25.7c0-15.2,4-27.1,11.9-35.5c8-8.5,19.1-12.7,33.5-12.7c9,0,16.9,1.9,23.7,5.8
		c6.8,3.9,12.1,9.5,15.8,16.8S532.2,616.7,532.2,626.5z M467.8,626.5c0,9.2,1.5,16.2,4.5,20.9s8,7.1,14.8,7.1
		c6.8,0,11.7-2.4,14.6-7.1c3-4.7,4.5-11.7,4.5-21c0-9.2-1.5-16.2-4.5-20.8c-3-4.6-7.9-6.9-14.8-6.9c-6.8,0-11.7,2.3-14.7,6.9
		C469.3,610.3,467.8,617.2,467.8,626.5z"/>
	<path id="XMLID_12_" d="M670.9,673.3h-25.4v-54.5c0-6.7-1.1-11.8-3.4-15.1c-2.3-3.4-5.8-5-10.6-5c-6.5,0-11.2,2.4-14.2,7.2
		c-2.9,4.8-4.4,12.7-4.4,23.6v43.9h-25.4v-93.3h19.4l3.4,11.9h1.4c2.5-4.3,6.1-7.6,10.8-10.1c4.7-2.4,10.1-3.6,16.3-3.6
		c14,0,23.4,4.6,28.4,13.7h2.3c2.5-4.3,6.2-7.7,11.1-10.1c4.9-2.4,10.4-3.6,16.5-3.6c10.6,0,18.6,2.7,24,8.1
		c5.4,5.4,8.1,14.1,8.1,26.1v60.8h-25.5v-54.5c0-6.7-1.1-11.8-3.4-15.1c-2.3-3.4-5.8-5-10.6-5c-6.2,0-10.9,2.2-14,6.7
		c-3.1,4.4-4.6,11.5-4.6,21.2V673.3z"/>
</g>
<path id="XMLID_166_" d="M56.3,786.2h-4.6v-66.6h36.5v4.3H56.3v28.2h30.1v4.3H56.3V786.2z"/>
<path id="XMLID_164_" d="M101.2,736.6v32.1c0,5,1,8.6,3.1,10.9c2.1,2.3,5.3,3.4,9.7,3.4c5.9,0,10.2-1.5,13-4.5
	c2.8-3,4.2-7.8,4.2-14.5v-27.3h4.5v49.5h-3.8l-0.8-6.8h-0.3c-3.2,5.2-8.9,7.7-17.2,7.7c-11.3,0-16.9-6-16.9-18.1v-32.3H101.2z"/>
<path id="XMLID_162_" d="M165.4,783.1c2.9,0,5.3-0.2,7.5-0.7v3.6c-2.2,0.7-4.7,1.1-7.6,1.1c-4.4,0-7.6-1.2-9.7-3.5
	c-2.1-2.3-3.1-6-3.1-11v-32h-7.3v-2.6l7.3-2l2.3-11.2h2.3v12h14.5v3.9h-14.5v31.3c0,3.8,0.7,6.6,2,8.4S162.5,783.1,165.4,783.1z"/>
<path id="XMLID_160_" d="M187.5,736.6v32.1c0,5,1,8.6,3.1,10.9c2.1,2.3,5.3,3.4,9.7,3.4c5.9,0,10.2-1.5,13-4.5
	c2.8-3,4.2-7.8,4.2-14.5v-27.3h4.5v49.5h-3.8l-0.8-6.8h-0.3c-3.2,5.2-8.9,7.7-17.2,7.7c-11.3,0-16.9-6-16.9-18.1v-32.3H187.5z"/>
<path id="XMLID_158_" d="M258.1,735.7c2.1,0,4.3,0.2,6.7,0.6l-0.9,4.3c-2.1-0.5-4.2-0.8-6.4-0.8c-4.2,0-7.7,1.8-10.4,5.4
	c-2.7,3.6-4.1,8.1-4.1,13.6v27.3h-4.5v-49.5h3.8l0.5,8.9h0.3c2-3.6,4.2-6.2,6.5-7.7C252,736.4,254.8,735.7,258.1,735.7z"/>
<path id="XMLID_155_" d="M294.9,787.1c-7.2,0-12.8-2.2-16.8-6.7c-4-4.4-6-10.6-6-18.6c0-7.9,1.9-14.2,5.8-19
	c3.9-4.8,9.1-7.1,15.7-7.1c5.8,0,10.4,2,13.8,6.1s5.1,9.6,5.1,16.6v3.6h-35.7c0.1,6.8,1.6,12,4.8,15.6c3.1,3.6,7.6,5.4,13.4,5.4
	c2.8,0,5.3-0.2,7.4-0.6c2.1-0.4,4.9-1.2,8.1-2.6v4.1c-2.8,1.2-5.4,2-7.7,2.5C300.4,786.9,297.7,787.1,294.9,787.1z M293.6,739.7
	c-4.8,0-8.6,1.6-11.5,4.7c-2.9,3.1-4.6,7.7-5.1,13.6h30.6c0-5.7-1.2-10.2-3.7-13.5C301.4,741.3,298,739.7,293.6,739.7z"/>
<path id="XMLID_153_" d="M356.1,786.2h-4.6v-66.6h36.5v4.3h-31.8v28.2h30.1v4.3h-30.1V786.2z"/>
<path id="XMLID_151_" d="M401.1,736.6v32.1c0,5,1,8.6,3.1,10.9c2.1,2.3,5.3,3.4,9.7,3.4c5.9,0,10.2-1.5,13-4.5
	c2.8-3,4.2-7.8,4.2-14.5v-27.3h4.5v49.5h-3.8l-0.8-6.8h-0.3c-3.2,5.2-8.9,7.7-17.2,7.7c-11.3,0-16.9-6-16.9-18.1v-32.3H401.1z"/>
<path id="XMLID_149_" d="M471.7,735.7c2.1,0,4.3,0.2,6.7,0.6l-0.9,4.3c-2.1-0.5-4.2-0.8-6.4-0.8c-4.2,0-7.7,1.8-10.4,5.4
	c-2.7,3.6-4.1,8.1-4.1,13.6v27.3h-4.5v-49.5h3.8l0.5,8.9h0.3c2-3.6,4.2-6.2,6.5-7.7C465.6,736.4,468.4,735.7,471.7,735.7z"/>
<path id="XMLID_147_" d="M523,786.2V754c0-5-1-8.6-3.1-10.9c-2.1-2.3-5.3-3.4-9.7-3.4c-5.9,0-10.3,1.5-13,4.5
	c-2.7,3-4.1,7.8-4.1,14.6v27.3h-4.5v-49.5h3.8l0.9,6.8h0.3c3.2-5.2,8.9-7.7,17.2-7.7c11.2,0,16.9,6,16.9,18.1v32.4H523z"/>
<path id="XMLID_144_" d="M542.9,722.9c0-2.9,1-4.4,2.9-4.4c0.9,0,1.7,0.4,2.2,1.1c0.5,0.8,0.8,1.8,0.8,3.2c0,1.4-0.3,2.4-0.8,3.2
	c-0.5,0.8-1.3,1.2-2.2,1.2C543.8,727.3,542.9,725.8,542.9,722.9z M548,786.2h-4.5v-49.5h4.5V786.2z"/>
<path id="XMLID_142_" d="M577.7,783.1c2.9,0,5.3-0.2,7.5-0.7v3.6c-2.2,0.7-4.7,1.1-7.6,1.1c-4.4,0-7.6-1.2-9.7-3.5
	c-2.1-2.3-3.1-6-3.1-11v-32h-7.3v-2.6l7.3-2l2.3-11.2h2.3v12h14.5v3.9h-14.5v31.3c0,3.8,0.7,6.6,2,8.4
	C572.7,782.2,574.8,783.1,577.7,783.1z"/>
<path id="XMLID_140_" d="M599.8,736.6v32.1c0,5,1,8.6,3.1,10.9c2.1,2.3,5.3,3.4,9.7,3.4c5.9,0,10.2-1.5,13-4.5
	c2.8-3,4.2-7.8,4.2-14.5v-27.3h4.5v49.5h-3.8l-0.8-6.8h-0.3c-3.2,5.2-8.9,7.7-17.2,7.7c-11.3,0-16.9-6-16.9-18.1v-32.3H599.8z"/>
<path id="XMLID_138_" d="M670.4,735.7c2.1,0,4.3,0.2,6.7,0.6l-0.9,4.3c-2.1-0.5-4.2-0.8-6.4-0.8c-4.2,0-7.7,1.8-10.4,5.4
	c-2.7,3.6-4.1,8.1-4.1,13.6v27.3h-4.5v-49.5h3.8l0.5,8.9h0.3c2-3.6,4.2-6.2,6.5-7.7C664.3,736.4,667.1,735.7,670.4,735.7z"/>
<path id="XMLID_135_" d="M707.2,787.1c-7.2,0-12.8-2.2-16.8-6.7c-4-4.4-6-10.6-6-18.6c0-7.9,1.9-14.2,5.8-19
	c3.9-4.8,9.1-7.1,15.7-7.1c5.8,0,10.4,2,13.8,6.1c3.4,4.1,5.1,9.6,5.1,16.6v3.6H689c0.1,6.8,1.6,12,4.8,15.6
	c3.1,3.6,7.6,5.4,13.4,5.4c2.8,0,5.3-0.2,7.4-0.6c2.1-0.4,4.9-1.2,8.1-2.6v4.1c-2.8,1.2-5.4,2-7.7,2.5
	C712.6,786.9,710,787.1,707.2,787.1z M705.8,739.7c-4.8,0-8.6,1.6-11.5,4.7c-2.9,3.1-4.6,7.7-5.1,13.6h30.6c0-5.7-1.2-10.2-3.7-13.5
	C713.7,741.3,710.2,739.7,705.8,739.7z"/>
<path id="XMLID_19_" d="M509,305.1c-0.2,0-0.3,0-0.5,0c-4.8-7.2-9.7-14.6-14.8-22.1c28.6-12.5,50.7-29.9,66.4-52
	c15.6-22.1,23.4-47.4,23.4-75.8c0-48.6-15.7-84.9-47.2-108.8c-31.5-23.9-80-35.8-145.6-35.8H288c0,0-11.5,1-25.5,13.1
	C248.4,35.7,250,50.2,250,50.2v78.5h52.3c5.8,0,10.5,4.7,10.5,10.5s-4.7,10.5-10.5,10.5c-0.2,0-0.3,0-0.5,0H250v37.9h26
	c5.8,0,10.5,4.7,10.5,10.5s-4.7,10.5-10.5,10.5c-0.2,0-0.3,0-0.5,0H250v156.9c-23.8,15.4-39.6,42.2-39.6,72.6
	c0,47.7,38.8,86.5,86.5,86.5s86.5-38.8,86.5-86.5c0-26.6-12.1-50.4-31-66.3V308v-83.2v-34.5v-69.2c0,0-2.1-10,4.9-18.8
	c7-8.8,26.1-7.9,26.1-7.9c33,0,57.4,4.8,73.1,14.5c15.7,9.7,23.6,26,23.6,48.9c0,23.1-11.7,41-23.1,50.8
	c-11.4,9.9-12.6,11.7-33.8,13.5c-21.1,1.8-32.6,11.4-32.6,38.4s10.4,38.1,16.2,47.4c2.2,3.5,13.3,21.3,26.2,42.1
	c-6.7,12.3-10.6,26.4-10.6,41.4c0,47.7,38.8,86.5,86.5,86.5c47.7,0,86.5-38.8,86.5-86.5C595.4,343.9,556.6,305.1,509,305.1z
	 M296.9,482.9c-24.7,0-44.8-20.1-44.8-44.8c0-24.7,20.1-44.8,44.8-44.8c24.7,0,44.8,20.1,44.8,44.8
	C341.7,462.8,321.6,482.9,296.9,482.9z M509,436.3c-24.7,0-44.8-20.1-44.8-44.8c0-24.7,20.1-44.8,44.8-44.8s44.8,20.1,44.8,44.8
	C553.7,416.2,533.7,436.3,509,436.3z"/>
</svg>
