<?xml version="1.0" encoding="utf-8"?>
<!-- Generator: Adobe Illustrator 19.0.0, SVG Export Plug-In . SVG Version: 6.00 Build 0)  -->
<svg version="1.1" id="Layer_1" xmlns="http://www.w3.org/2000/svg" xmlns:xlink="http://www.w3.org/1999/xlink" x="0px" y="0px"
	 viewBox="0 0 114 36" style="enable-background:new 0 0 114 36;" xml:space="preserve">
<style type="text/css">
	.st0{fill:#AFAEAF;}
</style>
<g id="XMLID_222_">
	<path id="XMLID_225_" class="st0" d="M16.4,17.3c-1.5,0-2.8-0.3-3.3-0.8c-0.2,0.2-0.2,0.4-0.2,0.6c0,1,1.6,1.8,3.6,1.8
		c2,0,3.6-0.8,3.6-1.8c0-0.2-0.1-0.4-0.2-0.6C19.2,16.9,18,17.3,16.4,17.3z"/>
	<path id="XMLID_224_" class="st0" d="M13,13.9c0.9,0,1.6,0.4,1.9,0.9c0.1-0.2,0.1-0.5,0.1-0.7c0-1.2-0.9-2.1-2.1-2.1
		c-1.2,0-2.1,0.9-2.1,2.1c0,0.3,0.1,0.5,0.1,0.7C11.3,14.3,12.1,13.9,13,13.9z"/>
	<path id="XMLID_223_" class="st0" d="M20.4,13.9c0.9,0,1.6,0.4,1.9,0.9c0.1-0.2,0.1-0.5,0.1-0.7c0-1.2-0.9-2.1-2.1-2.1
		c-1.2,0-2.1,0.9-2.1,2.1c0,0.3,0.1,0.5,0.1,0.7C18.7,14.3,19.5,13.9,20.4,13.9z"/>
</g>
<g id="XMLID_219_">
	<g id="XMLID_38_">
		<path id="XMLID_40_" class="st0" d="M15.4,23.2v-1.9c-1.8-0.2-3.2-0.7-4.3-1.5c-1.5-1.1-2.2-2.7-2.2-4.8c0-2.2,0.7-3.8,2.1-4.8
			c1-0.7,2.5-1.2,4.4-1.4V7c-2.6,0.2-4.6,0.9-6.1,1.9c-1.8,1.3-2.8,3.3-2.8,6c0,1.9,0.6,3.6,1.7,4.9c1.1,1.3,2.8,2.3,5,2.9l-1,1.6
			c-0.1,0-0.2,0-0.3,0c-1.7,0-3,1.2-3,2.6c0,1.5,1.3,2.6,3,2.6s3-1.2,3-2.6c0-0.7-0.3-1.2-0.7-1.7L15.4,23.2z"/>
		<path id="XMLID_39_" class="st0" d="M26.8,14.9c0-2.7-0.9-4.6-2.8-6c-1.4-1-3.5-1.6-6.1-1.9v1.8c1.9,0.2,3.4,0.7,4.4,1.4
			c1.4,1,2.1,2.6,2.1,4.8c0,2.1-0.7,3.7-2.2,4.8c-1.1,0.8-2.6,1.3-4.3,1.5v1.9h0l1.2,1.9c-0.4,0.5-0.7,1.1-0.7,1.7
			c0,1.5,1.3,2.6,3,2.6s3-1.2,3-2.6c0-1.5-1.3-2.6-3-2.6c-0.1,0-0.2,0-0.3,0l-1-1.6c2.2-0.6,3.9-1.5,5-2.9
			C26.3,18.4,26.8,16.8,26.8,14.9z"/>
	</g>
</g>
<g id="XMLID_293_">
	<path id="XMLID_294_" class="st0" d="M35.3,10c0.4,0,0.9,0,1.4,0.1l-0.2,0.9c-0.4-0.1-0.9-0.2-1.4-0.2c-0.9,0-1.6,0.4-2.2,1.2
		s-0.9,1.7-0.9,2.9v5.9h-1V10.2H32l0.1,1.9h0.1c0.4-0.8,0.9-1.3,1.4-1.6S34.6,10,35.3,10z"/>
	<path id="XMLID_296_" class="st0" d="M51.7,15.5c0,1.7-0.4,3.1-1.3,4.1S48.4,21,47,21c-0.9,0-1.8-0.2-2.5-0.7s-1.3-1.1-1.6-1.9
		s-0.6-1.8-0.6-2.9c0-1.7,0.4-3.1,1.3-4s2-1.5,3.5-1.5c1.5,0,2.6,0.5,3.4,1.5S51.7,13.8,51.7,15.5z M43.3,15.5c0,1.5,0.3,2.6,1,3.4
		s1.5,1.2,2.7,1.2s2.1-0.4,2.7-1.2s1-2,1-3.4c0-1.5-0.3-2.6-1-3.4s-1.6-1.2-2.7-1.2s-2.1,0.4-2.7,1.2S43.3,14,43.3,15.5z"/>
	<path id="XMLID_299_" class="st0" d="M67.4,15.5c0,1.7-0.4,3.1-1.3,4.1s-2,1.5-3.5,1.5c-0.9,0-1.8-0.2-2.5-0.7s-1.3-1.1-1.6-1.9
		S58,16.6,58,15.5c0-1.7,0.4-3.1,1.3-4s2-1.5,3.5-1.5c1.5,0,2.6,0.5,3.4,1.5S67.4,13.8,67.4,15.5z M59,15.5c0,1.5,0.3,2.6,1,3.4
		s1.5,1.2,2.7,1.2s2.1-0.4,2.7-1.2s1-2,1-3.4c0-1.5-0.3-2.6-1-3.4s-1.6-1.2-2.7-1.2s-2.1,0.4-2.7,1.2S59,14,59,15.5z"/>
	<path id="XMLID_302_" class="st0" d="M87.6,20.8v-7c0-1-0.2-1.8-0.6-2.3s-1-0.7-1.9-0.7c-1.1,0-1.9,0.3-2.4,0.9S82,13.3,82,14.6
		v6.2h-1v-7.3c0-1.8-0.8-2.7-2.5-2.7c-1.1,0-1.9,0.3-2.4,1s-0.8,1.7-0.8,3.1v5.9h-1V10.2h0.8l0.2,1.5h0.1c0.3-0.5,0.7-0.9,1.3-1.2
		s1.1-0.4,1.8-0.4c1.7,0,2.7,0.6,3.2,1.9h0c0.3-0.6,0.8-1.1,1.4-1.4s1.2-0.5,2-0.5c1.2,0,2,0.3,2.6,0.9s0.9,1.6,0.9,2.9v6.9H87.6z"
		/>
	<path id="XMLID_304_" class="st0" d="M99.1,15.3v5.5h-3V6.5h4.2c1.9,0,3.4,0.4,4.3,1.1s1.4,1.8,1.4,3.2c0,0.8-0.2,1.6-0.7,2.2
		s-1.1,1.2-2,1.5c2.1,3.2,3.5,5.3,4.2,6.2h-3.4l-3.4-5.5H99.1z M99.1,12.9h1c1,0,1.7-0.2,2.1-0.5s0.7-0.8,0.7-1.5
		c0-0.7-0.2-1.2-0.7-1.4S101,9,100,9h-0.9V12.9z"/>
</g>
<g id="XMLID_245_">
	<path id="XMLID_246_" class="st0" d="M30.7,28.8h-0.4v-5.4h2.9v0.3h-2.6V26h2.4v0.3h-2.4V28.8z"/>
	<path id="XMLID_248_" class="st0" d="M35.8,24.8v2.6c0,0.4,0.1,0.7,0.3,0.9c0.2,0.2,0.4,0.3,0.8,0.3c0.5,0,0.8-0.1,1-0.4
		c0.2-0.2,0.3-0.6,0.3-1.2v-2.2h0.4v4h-0.3l-0.1-0.6h0c-0.3,0.4-0.7,0.6-1.4,0.6c-0.9,0-1.4-0.5-1.4-1.5v-2.6H35.8z"/>
	<path id="XMLID_256_" class="st0" d="M42.5,28.5c0.2,0,0.4,0,0.6-0.1v0.3c-0.2,0.1-0.4,0.1-0.6,0.1c-0.4,0-0.6-0.1-0.8-0.3
		c-0.2-0.2-0.3-0.5-0.3-0.9v-2.6h-0.6v-0.2l0.6-0.2l0.2-0.9h0.2v1H43v0.3h-1.2v2.5c0,0.3,0.1,0.5,0.2,0.7
		C42.1,28.5,42.2,28.5,42.5,28.5z"/>
	<path id="XMLID_258_" class="st0" d="M45.8,24.8v2.6c0,0.4,0.1,0.7,0.3,0.9c0.2,0.2,0.4,0.3,0.8,0.3c0.5,0,0.8-0.1,1-0.4
		c0.2-0.2,0.3-0.6,0.3-1.2v-2.2h0.4v4h-0.3l-0.1-0.6h0c-0.3,0.4-0.7,0.6-1.4,0.6c-0.9,0-1.4-0.5-1.4-1.5v-2.6H45.8z"/>
	<path id="XMLID_260_" class="st0" d="M53,24.7c0.2,0,0.3,0,0.5,0.1l-0.1,0.3c-0.2,0-0.3-0.1-0.5-0.1c-0.3,0-0.6,0.1-0.8,0.4
		s-0.3,0.7-0.3,1.1v2.2h-0.4v-4h0.3l0,0.7h0c0.2-0.3,0.3-0.5,0.5-0.6C52.5,24.8,52.7,24.7,53,24.7z"/>
	<path id="XMLID_262_" class="st0" d="M57.4,28.9c-0.6,0-1-0.2-1.4-0.5s-0.5-0.9-0.5-1.5c0-0.6,0.2-1.1,0.5-1.5
		c0.3-0.4,0.7-0.6,1.3-0.6c0.5,0,0.8,0.2,1.1,0.5s0.4,0.8,0.4,1.3v0.3H56c0,0.5,0.1,1,0.4,1.3s0.6,0.4,1.1,0.4c0.2,0,0.4,0,0.6,0
		c0.2,0,0.4-0.1,0.7-0.2v0.3c-0.2,0.1-0.4,0.2-0.6,0.2C57.9,28.8,57.7,28.9,57.4,28.9z M57.3,25c-0.4,0-0.7,0.1-0.9,0.4
		C56.2,25.7,56,26,56,26.5h2.5c0-0.5-0.1-0.8-0.3-1.1C58,25.2,57.7,25,57.3,25z"/>
	<path id="XMLID_266_" class="st0" d="M65.4,28.8H65v-5.4H68v0.3h-2.6V26h2.4v0.3h-2.4V28.8z"/>
	<path id="XMLID_271_" class="st0" d="M70.5,24.8v2.6c0,0.4,0.1,0.7,0.3,0.9c0.2,0.2,0.4,0.3,0.8,0.3c0.5,0,0.8-0.1,1-0.4
		c0.2-0.2,0.3-0.6,0.3-1.2v-2.2h0.4v4H73l-0.1-0.6h0c-0.3,0.4-0.7,0.6-1.4,0.6c-0.9,0-1.4-0.5-1.4-1.5v-2.6H70.5z"/>
	<path id="XMLID_273_" class="st0" d="M77.7,24.7c0.2,0,0.3,0,0.5,0.1l-0.1,0.3c-0.2,0-0.3-0.1-0.5-0.1c-0.3,0-0.6,0.1-0.8,0.4
		s-0.3,0.7-0.3,1.1v2.2h-0.4v-4h0.3l0,0.7h0c0.2-0.3,0.3-0.5,0.5-0.6C77.2,24.8,77.4,24.7,77.7,24.7z"/>
	<path id="XMLID_276_" class="st0" d="M83.4,28.8v-2.6c0-0.4-0.1-0.7-0.3-0.9c-0.2-0.2-0.4-0.3-0.8-0.3c-0.5,0-0.8,0.1-1,0.4
		s-0.3,0.6-0.3,1.2v2.2h-0.4v-4h0.3l0.1,0.5h0c0.3-0.4,0.7-0.6,1.4-0.6c0.9,0,1.4,0.5,1.4,1.5v2.6H83.4z"/>
	<path id="XMLID_278_" class="st0" d="M86.5,23.7c0-0.2,0.1-0.4,0.2-0.4c0.1,0,0.1,0,0.2,0.1c0,0.1,0.1,0.1,0.1,0.3
		c0,0.1,0,0.2-0.1,0.3c0,0.1-0.1,0.1-0.2,0.1C86.5,24,86.5,23.9,86.5,23.7z M86.9,28.8h-0.4v-4h0.4V28.8z"/>
	<path id="XMLID_284_" class="st0" d="M90.8,28.5c0.2,0,0.4,0,0.6-0.1v0.3c-0.2,0.1-0.4,0.1-0.6,0.1c-0.4,0-0.6-0.1-0.8-0.3
		c-0.2-0.2-0.3-0.5-0.3-0.9v-2.6h-0.6v-0.2l0.6-0.2l0.2-0.9h0.2v1h1.2v0.3h-1.2v2.5c0,0.3,0.1,0.5,0.2,0.7
		C90.4,28.5,90.5,28.5,90.8,28.5z"/>
	<path id="XMLID_286_" class="st0" d="M94.1,24.8v2.6c0,0.4,0.1,0.7,0.3,0.9c0.2,0.2,0.4,0.3,0.8,0.3c0.5,0,0.8-0.1,1-0.4
		c0.2-0.2,0.3-0.6,0.3-1.2v-2.2h0.4v4h-0.3l-0.1-0.6h0c-0.3,0.4-0.7,0.6-1.4,0.6c-0.9,0-1.4-0.5-1.4-1.5v-2.6H94.1z"/>
	<path id="XMLID_288_" class="st0" d="M101.3,24.7c0.2,0,0.3,0,0.5,0.1l-0.1,0.3c-0.2,0-0.3-0.1-0.5-0.1c-0.3,0-0.6,0.1-0.8,0.4
		s-0.3,0.7-0.3,1.1v2.2h-0.4v-4h0.3l0,0.7h0c0.2-0.3,0.3-0.5,0.5-0.6C100.8,24.8,101,24.7,101.3,24.7z"/>
	<path id="XMLID_290_" class="st0" d="M105.7,28.9c-0.6,0-1-0.2-1.4-0.5s-0.5-0.9-0.5-1.5c0-0.6,0.2-1.1,0.5-1.5
		c0.3-0.4,0.7-0.6,1.3-0.6c0.5,0,0.8,0.2,1.1,0.5s0.4,0.8,0.4,1.3v0.3h-2.9c0,0.5,0.1,1,0.4,1.3s0.6,0.4,1.1,0.4c0.2,0,0.4,0,0.6,0
		c0.2,0,0.4-0.1,0.7-0.2v0.3c-0.2,0.1-0.4,0.2-0.6,0.2C106.2,28.8,106,28.9,105.7,28.9z M105.6,25c-0.4,0-0.7,0.1-0.9,0.4
		c-0.2,0.3-0.4,0.6-0.4,1.1h2.5c0-0.5-0.1-0.8-0.3-1.1C106.3,25.2,106,25,105.6,25z"/>
</g>
</svg>
