<?xml version="1.0" encoding="utf-8"?>
<!-- Generator: Adobe Illustrator 19.0.0, SVG Export Plug-In . SVG Version: 6.00 Build 0)  -->
<svg version="1.1" id="Layer_1" xmlns="http://www.w3.org/2000/svg" xmlns:xlink="http://www.w3.org/1999/xlink" x="0px" y="0px"
	 viewBox="0 0 85.1 22.4" style="enable-background:new 0 0 85.1 22.4;" xml:space="preserve">
<style type="text/css">
	.st0{fill:#F7F7F7;}
</style>
<g id="XMLID_222_">
	<path id="XMLID_225_" class="st0" d="M9.2,10.4c-1.2,0-2.3-0.3-2.7-0.7c-0.1,0.2-0.2,0.3-0.2,0.5c0,0.8,1.3,1.5,2.9,1.5
		c1.6,0,2.9-0.7,2.9-1.5c0-0.2-0.1-0.4-0.2-0.5C11.5,10.2,10.5,10.4,9.2,10.4z"/>
	<path id="XMLID_224_" class="st0" d="M6.4,7.6C7.1,7.6,7.8,8,8,8.4C8.1,8.2,8.1,8,8.1,7.8c0-0.9-0.8-1.7-1.7-1.7
		c-0.9,0-1.7,0.8-1.7,1.7c0,0.2,0,0.4,0.1,0.6C5.1,8,5.7,7.6,6.4,7.6z"/>
	<path id="XMLID_223_" class="st0" d="M12.5,7.6c0.7,0,1.3,0.3,1.6,0.8c0.1-0.2,0.1-0.4,0.1-0.6c0-0.9-0.8-1.7-1.7-1.7
		c-0.9,0-1.7,0.8-1.7,1.7c0,0.2,0,0.4,0.1,0.6C11.1,8,11.7,7.6,12.5,7.6z"/>
</g>
<g id="XMLID_219_">
	<g id="XMLID_51_">
		<path id="XMLID_53_" class="st0" d="M8.4,15.3v-1.6c-1.4-0.2-2.7-0.6-3.5-1.2C3.6,11.6,3,10.3,3,8.6c0-1.8,0.6-3.1,1.7-3.9
			c0.8-0.6,2-0.9,3.6-1.1V2c-2.2,0.2-3.8,0.7-5,1.5C1.9,4.6,1.1,6.3,1.1,8.5c0,1.6,0.5,2.9,1.4,4c0.9,1.1,2.3,1.9,4.1,2.3l-0.8,1.3
			c-0.1,0-0.2,0-0.3,0c-1.4,0-2.5,1-2.5,2.2c0,1.2,1.1,2.2,2.5,2.2s2.5-1,2.5-2.2c0-0.5-0.2-1-0.6-1.4L8.4,15.3z"/>
		<path id="XMLID_52_" class="st0" d="M17.7,8.5c0-2.2-0.8-3.8-2.3-4.9c-1.2-0.8-2.8-1.3-5-1.5v1.5c1.6,0.2,2.8,0.5,3.6,1.1
			c1.2,0.8,1.7,2.1,1.7,3.9c0,1.7-0.6,3.1-1.8,3.9c-0.9,0.7-2.1,1.1-3.6,1.2v1.5h0l1,1.6c-0.4,0.4-0.6,0.9-0.6,1.4
			c0,1.2,1.1,2.2,2.5,2.2s2.5-1,2.5-2.2c0-1.2-1.1-2.2-2.5-2.2c-0.1,0-0.2,0-0.3,0l-0.8-1.3c1.8-0.5,3.2-1.3,4.1-2.3
			C17.3,11.4,17.7,10,17.7,8.5z"/>
	</g>
</g>
<g id="XMLID_78_">
	<path id="XMLID_79_" class="st0" d="M24.7,4.5c0.4,0,0.8,0,1.2,0.1l-0.2,0.8c-0.4-0.1-0.7-0.1-1.1-0.1c-0.7,0-1.4,0.3-1.8,0.9
		c-0.5,0.6-0.7,1.4-0.7,2.4v4.8h-0.8V4.6H22L22,6.2h0.1c0.4-0.6,0.7-1.1,1.1-1.4C23.7,4.6,24.1,4.5,24.7,4.5z"/>
	<path id="XMLID_81_" class="st0" d="M38.2,9c0,1.4-0.3,2.5-1,3.3c-0.7,0.8-1.6,1.2-2.9,1.2c-0.8,0-1.4-0.2-2-0.6s-1-0.9-1.3-1.6
		S30.5,9.9,30.5,9c0-1.4,0.3-2.5,1-3.3s1.6-1.2,2.8-1.2c1.2,0,2.1,0.4,2.8,1.2C37.8,6.5,38.2,7.6,38.2,9z M31.3,9
		c0,1.2,0.3,2.1,0.8,2.8c0.5,0.7,1.3,1,2.2,1s1.7-0.3,2.2-1c0.5-0.7,0.8-1.6,0.8-2.8c0-1.2-0.3-2.1-0.8-2.8c-0.5-0.7-1.3-1-2.2-1
		s-1.7,0.3-2.2,1C31.5,6.8,31.3,7.8,31.3,9z"/>
	<path id="XMLID_84_" class="st0" d="M51.1,9c0,1.4-0.3,2.5-1,3.3c-0.7,0.8-1.6,1.2-2.9,1.2c-0.8,0-1.4-0.2-2-0.6s-1-0.9-1.3-1.6
		S43.3,9.9,43.3,9c0-1.4,0.3-2.5,1-3.3s1.6-1.2,2.8-1.2c1.2,0,2.1,0.4,2.8,1.2C50.7,6.5,51.1,7.6,51.1,9z M44.2,9
		c0,1.2,0.3,2.1,0.8,2.8c0.5,0.7,1.3,1,2.2,1s1.7-0.3,2.2-1c0.5-0.7,0.8-1.6,0.8-2.8c0-1.2-0.3-2.1-0.8-2.8c-0.5-0.7-1.3-1-2.2-1
		s-1.7,0.3-2.2,1C44.4,6.8,44.2,7.8,44.2,9z"/>
	<path id="XMLID_87_" class="st0" d="M67.6,13.3V7.6c0-0.8-0.2-1.5-0.5-1.9c-0.3-0.4-0.8-0.6-1.5-0.6c-0.9,0-1.6,0.2-2,0.7
		C63.2,6.4,63,7.2,63,8.2v5.1h-0.8v-6c0-1.5-0.7-2.2-2-2.2c-0.9,0-1.6,0.3-2,0.8c-0.4,0.5-0.6,1.4-0.6,2.6v4.8h-0.8V4.6h0.7l0.2,1.2
		h0c0.2-0.4,0.6-0.8,1-1c0.4-0.2,0.9-0.4,1.5-0.4c1.4,0,2.3,0.5,2.6,1.5h0c0.3-0.5,0.7-0.9,1.1-1.1c0.5-0.3,1-0.4,1.6-0.4
		c1,0,1.7,0.3,2.1,0.8c0.5,0.5,0.7,1.3,0.7,2.4v5.7H67.6z"/>
	<path id="XMLID_89_" class="st0" d="M77,8.8v4.5h-2.5V1.6h3.4c1.6,0,2.8,0.3,3.5,0.9c0.8,0.6,1.1,1.5,1.1,2.6
		c0,0.7-0.2,1.3-0.6,1.8c-0.4,0.5-0.9,1-1.6,1.3c1.8,2.6,2.9,4.3,3.4,5.1h-2.8l-2.8-4.5H77z M77,6.8h0.8c0.8,0,1.4-0.1,1.7-0.4
		c0.4-0.3,0.6-0.7,0.6-1.2c0-0.6-0.2-1-0.6-1.2c-0.4-0.2-1-0.4-1.8-0.4H77V6.8z"/>
</g>
<g id="XMLID_40_">
	<path id="XMLID_41_" class="st0" d="M20.9,19.9h-0.3v-4.4H23v0.3h-2.1v1.9h2v0.3h-2V19.9z"/>
	<path id="XMLID_43_" class="st0" d="M25.1,16.6v2.1c0,0.3,0.1,0.6,0.2,0.7c0.1,0.1,0.4,0.2,0.6,0.2c0.4,0,0.7-0.1,0.9-0.3
		c0.2-0.2,0.3-0.5,0.3-1v-1.8h0.3v3.3h-0.3l-0.1-0.5h0c-0.2,0.3-0.6,0.5-1.1,0.5c-0.7,0-1.1-0.4-1.1-1.2v-2.1H25.1z"/>
	<path id="XMLID_45_" class="st0" d="M30.6,19.7c0.2,0,0.4,0,0.5,0v0.2c-0.1,0-0.3,0.1-0.5,0.1c-0.3,0-0.5-0.1-0.6-0.2
		s-0.2-0.4-0.2-0.7v-2.1h-0.5v-0.2l0.5-0.1l0.2-0.7H30v0.8h1v0.3h-1v2.1c0,0.3,0,0.4,0.1,0.6S30.4,19.7,30.6,19.7z"/>
	<path id="XMLID_48_" class="st0" d="M33.3,16.6v2.1c0,0.3,0.1,0.6,0.2,0.7c0.1,0.1,0.4,0.2,0.6,0.2c0.4,0,0.7-0.1,0.9-0.3
		c0.2-0.2,0.3-0.5,0.3-1v-1.8h0.3v3.3h-0.3l-0.1-0.5h0c-0.2,0.3-0.6,0.5-1.1,0.5c-0.7,0-1.1-0.4-1.1-1.2v-2.1H33.3z"/>
	<path id="XMLID_50_" class="st0" d="M39.2,16.5c0.1,0,0.3,0,0.4,0l-0.1,0.3c-0.1,0-0.3-0.1-0.4-0.1c-0.3,0-0.5,0.1-0.7,0.4
		c-0.2,0.2-0.3,0.5-0.3,0.9v1.8h-0.3v-3.3h0.3l0,0.6h0c0.1-0.2,0.3-0.4,0.4-0.5C38.8,16.6,39,16.5,39.2,16.5z"/>
	<path id="XMLID_55_" class="st0" d="M42.9,19.9c-0.5,0-0.8-0.1-1.1-0.4c-0.3-0.3-0.4-0.7-0.4-1.2c0-0.5,0.1-0.9,0.4-1.3
		c0.3-0.3,0.6-0.5,1-0.5c0.4,0,0.7,0.1,0.9,0.4c0.2,0.3,0.3,0.6,0.3,1.1v0.2h-2.4c0,0.5,0.1,0.8,0.3,1c0.2,0.2,0.5,0.4,0.9,0.4
		c0.2,0,0.4,0,0.5,0c0.1,0,0.3-0.1,0.5-0.2v0.3c-0.2,0.1-0.4,0.1-0.5,0.2C43.2,19.9,43.1,19.9,42.9,19.9z M42.8,16.8
		c-0.3,0-0.6,0.1-0.8,0.3c-0.2,0.2-0.3,0.5-0.3,0.9h2c0-0.4-0.1-0.7-0.2-0.9S43.1,16.8,42.8,16.8z"/>
	<path id="XMLID_58_" class="st0" d="M49.4,19.9h-0.3v-4.4h2.4v0.3h-2.1v1.9h2v0.3h-2V19.9z"/>
	<path id="XMLID_60_" class="st0" d="M53.6,16.6v2.1c0,0.3,0.1,0.6,0.2,0.7c0.1,0.1,0.4,0.2,0.6,0.2c0.4,0,0.7-0.1,0.9-0.3
		c0.2-0.2,0.3-0.5,0.3-1v-1.8h0.3v3.3h-0.3l-0.1-0.5h0c-0.2,0.3-0.6,0.5-1.1,0.5c-0.7,0-1.1-0.4-1.1-1.2v-2.1H53.6z"/>
	<path id="XMLID_62_" class="st0" d="M59.5,16.5c0.1,0,0.3,0,0.4,0l-0.1,0.3c-0.1,0-0.3-0.1-0.4-0.1c-0.3,0-0.5,0.1-0.7,0.4
		c-0.2,0.2-0.3,0.5-0.3,0.9v1.8h-0.3v-3.3h0.3l0,0.6h0c0.1-0.2,0.3-0.4,0.4-0.5C59.1,16.6,59.3,16.5,59.5,16.5z"/>
	<path id="XMLID_64_" class="st0" d="M64.1,19.9v-2.1c0-0.3-0.1-0.6-0.2-0.7c-0.1-0.1-0.4-0.2-0.6-0.2c-0.4,0-0.7,0.1-0.9,0.3
		c-0.2,0.2-0.3,0.5-0.3,1v1.8h-0.3v-3.3h0.3l0.1,0.4h0c0.2-0.3,0.6-0.5,1.1-0.5c0.7,0,1.1,0.4,1.1,1.2v2.1H64.1z"/>
	<path id="XMLID_66_" class="st0" d="M66.7,15.7c0-0.2,0.1-0.3,0.2-0.3c0.1,0,0.1,0,0.1,0.1s0.1,0.1,0.1,0.2c0,0.1,0,0.2-0.1,0.2
		S66.9,16,66.9,16C66.7,16,66.7,15.9,66.7,15.7z M67,19.9h-0.3v-3.3H67V19.9z"/>
	<path id="XMLID_69_" class="st0" d="M70.2,19.7c0.2,0,0.4,0,0.5,0v0.2c-0.1,0-0.3,0.1-0.5,0.1c-0.3,0-0.5-0.1-0.6-0.2
		s-0.2-0.4-0.2-0.7v-2.1h-0.5v-0.2l0.5-0.1l0.2-0.7h0.2v0.8h1v0.3h-1v2.1c0,0.3,0,0.4,0.1,0.6S70,19.7,70.2,19.7z"/>
	<path id="XMLID_71_" class="st0" d="M72.9,16.6v2.1c0,0.3,0.1,0.6,0.2,0.7c0.1,0.1,0.4,0.2,0.6,0.2c0.4,0,0.7-0.1,0.9-0.3
		c0.2-0.2,0.3-0.5,0.3-1v-1.8h0.3v3.3h-0.3l-0.1-0.5h0c-0.2,0.3-0.6,0.5-1.1,0.5c-0.7,0-1.1-0.4-1.1-1.2v-2.1H72.9z"/>
	<path id="XMLID_73_" class="st0" d="M78.8,16.5c0.1,0,0.3,0,0.4,0l-0.1,0.3c-0.1,0-0.3-0.1-0.4-0.1c-0.3,0-0.5,0.1-0.7,0.4
		c-0.2,0.2-0.3,0.5-0.3,0.9v1.8h-0.3v-3.3h0.3l0,0.6h0c0.1-0.2,0.3-0.4,0.4-0.5C78.4,16.6,78.6,16.5,78.8,16.5z"/>
	<path id="XMLID_75_" class="st0" d="M82.5,19.9c-0.5,0-0.8-0.1-1.1-0.4c-0.3-0.3-0.4-0.7-0.4-1.2c0-0.5,0.1-0.9,0.4-1.3
		c0.3-0.3,0.6-0.5,1-0.5c0.4,0,0.7,0.1,0.9,0.4c0.2,0.3,0.3,0.6,0.3,1.1v0.2h-2.4c0,0.5,0.1,0.8,0.3,1c0.2,0.2,0.5,0.4,0.9,0.4
		c0.2,0,0.4,0,0.5,0c0.1,0,0.3-0.1,0.5-0.2v0.3c-0.2,0.1-0.4,0.1-0.5,0.2C82.8,19.9,82.7,19.9,82.5,19.9z M82.4,16.8
		c-0.3,0-0.6,0.1-0.8,0.3c-0.2,0.2-0.3,0.5-0.3,0.9h2c0-0.4-0.1-0.7-0.2-0.9S82.7,16.8,82.4,16.8z"/>
</g>
</svg>
