<?xml version="1.0" encoding="utf-8"?>
<!-- Generator: Adobe Illustrator 19.0.0, SVG Export Plug-In . SVG Version: 6.00 Build 0)  -->
<svg version="1.1" id="Layer_1" xmlns="http://www.w3.org/2000/svg" xmlns:xlink="http://www.w3.org/1999/xlink" x="0px" y="0px"
	 viewBox="0 0 175.5 376.6" style="enable-background:new 0 0 175.5 376.6;" xml:space="preserve">
<style type="text/css">
	.st0{fill:#E0E0E0;}
	.st1{fill:#878787;}
</style>
<g id="XMLID_1_">
	<path id="XMLID_7_" class="st0" d="M81.9,14.3c-40.3,0-73,32.7-73,73s32.7,73,73,73c40.3,0,73-32.7,73-73S122.2,14.3,81.9,14.3z
		 M81.9,137.3c-27.6,0-50-22.4-50-50s22.4-50,50-50c27.6,0,50,22.4,50,50S109.5,137.3,81.9,137.3z"/>
	<path id="XMLID_4_" class="st0" d="M81.9,50.8c-20.2,0-36.5,16.3-36.5,36.5s16.3,36.5,36.5,36.5c20.2,0,36.5-16.3,36.5-36.5
		S102.1,50.8,81.9,50.8z M81.9,112.3c-13.8,0-25-11.2-25-25s11.2-25,25-25c13.8,0,25,11.2,25,25S95.7,112.3,81.9,112.3z"/>
</g>
<path id="XMLID_3_" class="st1" d="M127.6,329v-10.5l37.5-73.4c0,0,6.7-17.2-6.7-26.2c-13.5-9-16.5,0-16.5,0s2.2-15.7-6.7-20.2
	s-19.5,0-19.5,0s4.5-23.2-14.2-28.5s-21,6.7-21,6.7s5.2-86.1,5.2-90.7c0-4.6-9-19.5-17.2,0s-18,101.9-18,101.9s-17.2,27-17.2,38.2
	c0,11.2,16.5,86.2,16.5,86.2L48.2,329H127.6z"/>
<path id="XMLID_12_" class="st0" d="M130.8,360.1H46.2c-3.3,0-6-2.7-6-6v-15c0-3.3,2.7-6,6-6h84.7c3.3,0,6,2.7,6,6v15
	C136.8,357.4,134.1,360.1,130.8,360.1z"/>
</svg>
